<?xml version="1.0" encoding="UTF-8"?>
<svg width="556px" height="514px" viewBox="0 0 556 514" version="1.1" xmlns="http://www.w3.org/2000/svg" xmlns:xlink="http://www.w3.org/1999/xlink">
    <!-- Generator: Sketch 64 (93537) - https://sketch.com -->
    <title>Group 23</title>
    <desc>Created with Sketch.</desc>
    <defs>
        <linearGradient x1="50.0304205%" y1="99.9946339%" x2="50.0304205%" y2="0.0142200681%" id="linearGradient-1">
            <stop stop-color="#808080" stop-opacity="0.25" offset="0%"></stop>
            <stop stop-color="#808080" stop-opacity="0.12" offset="54%"></stop>
            <stop stop-color="#808080" stop-opacity="0.1" offset="100%"></stop>
        </linearGradient>
    </defs>
    <g id="homw-page" stroke="none" stroke-width="1" fill="none" fill-rule="evenodd">
        <g id="01-Productly-Copy-3" transform="translate(-135.000000, -2954.000000)" fill-rule="nonzero">
            <g id="Group-23" transform="translate(135.000000, 2954.000000)">
                <g id="Group-22" transform="translate(58.000000, 479.000000)">
                    <rect id="Rectangle" fill="#3F3D56" transform="translate(229.000000, 24.000000) scale(-1, 1) translate(-229.000000, -24.000000) " x="0" y="23" width="458" height="2"></rect>
                    <rect id="Rectangle" fill="#4586FF" transform="translate(450.500000, 25.500000) scale(-1, 1) translate(-450.500000, -25.500000) " x="441" y="16" width="19" height="19"></rect>
                    <path d="M452,23 L429,23 L429,0 L452,0 L452,23 Z M429.999997,22.0000029 L450.999997,22.0000029 L450.999997,1.00000293 L429.999997,1.00000293 L429.999997,22.0000029 Z" id="Shape" fill="#3F3D56" transform="translate(440.500000, 11.500000) scale(-1, 1) translate(-440.500000, -11.500000) "></path>
                </g>
                <rect id="Rectangle" fill="#F0F0F0" transform="translate(305.500000, 171.500000) scale(-1, 1) translate(-305.500000, -171.500000) " x="55" y="0" width="501" height="343" rx="20"></rect>
                <path d="M556,27.3846154 L556,17.9615368 L540.594916,17.9615368 L540.594916,1 L533.89706,1 L533.89706,17.9615368 L77.102946,17.9615368 L77.102946,1 L70.4050843,1 L70.4050843,17.9615368 L55,17.9615368 L55,27.3846154 L70.4050843,27.3846154 L70.4050843,317.6154 L55,317.6154 L55,327.038463 L70.4050843,327.038463 L70.4050843,344 L77.102946,344 L77.102946,327.038463 L533.89706,327.038463 L533.89706,344 L540.594916,344 L540.594916,327.038463 L556,327.038463 L556,317.6154 L540.594916,317.6154 L540.594916,27.3846154 L556,27.3846154 Z M534,319 L77,319 L77,28 L534,28 L534,319 Z" id="Shape" fill="#58DFFF" opacity="0.1" transform="translate(305.500000, 172.500000) scale(-1, 1) translate(-305.500000, -172.500000) "></path>
                <g id="Group-14" transform="translate(416.000000, 47.000000)">
                    <rect id="Rectangle" fill="#D0CDE1" transform="translate(41.500000, 39.500000) scale(-1, 1) translate(-41.500000, -39.500000) " x="0" y="0" width="83" height="79"></rect>
                    <rect id="Rectangle" fill="#4586FF" transform="translate(41.000000, 34.500000) scale(-1, 1) translate(-41.000000, -34.500000) " x="9" y="10" width="64" height="49"></rect>
                    <rect id="Rectangle" fill="#F2F2F2" transform="translate(48.000000, 28.000000) scale(-1, 1) translate(-48.000000, -28.000000) " x="37" y="17" width="22" height="22"></rect>
                    <path d="M24,23 L24,50 L51,50 L51,23 L24,23 Z M49.8288556,48.8288204 L25.171127,48.8288204 L25.171127,24.1711275 L49.8288556,24.1711275 L49.8288556,48.8288204 Z" id="Shape" fill="#3F3D56" transform="translate(37.500000, 36.500000) scale(-1, 1) translate(-37.500000, -36.500000) "></path>
                    <rect id="Rectangle" fill="#F2F2F2" transform="translate(55.500000, 64.000000) scale(-1, 1) translate(-55.500000, -64.000000) " x="38" y="63" width="35" height="2"></rect>
                    <circle id="Oval" fill="#3F3D56" transform="translate(41.500000, 4.500000) scale(-1, 1) translate(-41.500000, -4.500000) " cx="41.5" cy="4.5" r="3.5"></circle>
                </g>
                <g id="Group-19" transform="translate(176.000000, 220.000000)">
                    <rect id="Rectangle" fill="#D0CDE1" transform="translate(41.500000, 39.500000) scale(-1, 1) translate(-41.500000, -39.500000) " x="0" y="0" width="83" height="79"></rect>
                    <rect id="Rectangle" fill="#4586FF" transform="translate(42.000000, 32.500000) scale(-1, 1) translate(-42.000000, -32.500000) " x="10" y="8" width="64" height="49"></rect>
                    <rect id="Rectangle" fill="#F2F2F2" transform="translate(55.500000, 64.000000) scale(-1, 1) translate(-55.500000, -64.000000) " x="38" y="63" width="35" height="2"></rect>
                    <rect id="Rectangle" fill="#F2F2F2" transform="translate(55.500000, 69.000000) scale(-1, 1) translate(-55.500000, -69.000000) " x="38" y="68" width="35" height="2"></rect>
                    <circle id="Oval" fill="#3F3D56" transform="translate(62.000000, 33.000000) scale(-1, 1) translate(-62.000000, -33.000000) " cx="62" cy="33" r="7"></circle>
                    <circle id="Oval" fill="#F2F2F2" transform="translate(41.000000, 33.000000) scale(-1, 1) translate(-41.000000, -33.000000) " cx="41" cy="33" r="7"></circle>
                    <circle id="Oval" fill="#FF6584" transform="translate(21.000000, 33.000000) scale(-1, 1) translate(-21.000000, -33.000000) " cx="21" cy="33" r="7"></circle>
                    <circle id="Oval" fill="#3F3D56" transform="translate(41.500000, 3.500000) scale(-1, 1) translate(-41.500000, -3.500000) " cx="41.5" cy="3.5" r="3.5"></circle>
                </g>
                <g id="Group-20" transform="translate(270.000000, 121.000000)">
                    <rect id="Rectangle" fill="#D0CDE1" transform="translate(41.500000, 39.500000) scale(-1, 1) translate(-41.500000, -39.500000) " x="0" y="0" width="83" height="79"></rect>
                    <rect id="Rectangle" fill="#4586FF" transform="translate(41.000000, 33.500000) scale(-1, 1) translate(-41.000000, -33.500000) " x="9" y="9" width="64" height="49"></rect>
                    <circle id="Oval" fill="#F2F2F2" transform="translate(44.500000, 39.500000) scale(-1, 1) translate(-44.500000, -39.500000) " cx="44.5" cy="39.5" r="15.5"></circle>
                    <path d="M40.5,51 C29.7304474,51 21,42.2695526 21,31.5 C21,20.7304474 29.7304474,12 40.5,12 C51.2695526,12 60,20.7304474 60,31.5 C59.9878414,42.2645123 51.2645123,50.9878414 40.5,51 Z M40.5,12.7090926 C32.8997845,12.7090926 26.0479353,17.2873523 23.1394593,24.309036 C20.2309833,31.3307198 21.8386552,39.413027 27.2128199,44.7871901 C32.5869846,50.1613532 40.6692924,51.7690225 47.6909752,48.8605443 C54.7126581,45.9520661 59.2909132,39.1002155 59.2909132,31.5 C59.27926,21.1268969 50.8731031,12.7207426 40.5,12.7090926 L40.5,12.7090926 Z" id="Shape" fill="#3F3D56" transform="translate(40.500000, 31.500000) scale(-1, 1) translate(-40.500000, -31.500000) "></path>
                    <rect id="Rectangle" fill="#F2F2F2" transform="translate(55.500000, 69.000000) scale(-1, 1) translate(-55.500000, -69.000000) " x="38" y="68" width="35" height="2"></rect>
                    <rect id="Rectangle" fill="#F2F2F2" transform="translate(48.500000, 64.000000) scale(-1, 1) translate(-48.500000, -64.000000) " x="24" y="63" width="49" height="2"></rect>
                    <circle id="Oval" fill="#3F3D56" transform="translate(40.500000, 4.500000) scale(-1, 1) translate(-40.500000, -4.500000) " cx="40.5" cy="4.5" r="3.5"></circle>
                </g>
                <g id="Group-21" transform="translate(401.000000, 191.000000)">
                    <rect id="Rectangle" fill="#D0CDE1" transform="translate(41.500000, 39.500000) scale(-1, 1) translate(-41.500000, -39.500000) " x="0" y="0" width="83" height="79"></rect>
                    <rect id="Rectangle" fill="#4586FF" transform="translate(42.000000, 33.500000) scale(-1, 1) translate(-42.000000, -33.500000) " x="10" y="9" width="64" height="49"></rect>
                    <rect id="Rectangle" fill="#3F3D56" transform="translate(42.000000, 49.000000) scale(-1, 1) translate(-42.000000, -49.000000) " x="35" y="47" width="14" height="4"></rect>
                    <rect id="Rectangle" fill="#3F3D56" transform="translate(41.500000, 16.000000) scale(-1, 1) translate(-41.500000, -16.000000) " x="18" y="15" width="47" height="2"></rect>
                    <rect id="Rectangle" fill="#3F3D56" transform="translate(41.500000, 22.000000) scale(-1, 1) translate(-41.500000, -22.000000) " x="18" y="21" width="47" height="2"></rect>
                    <rect id="Rectangle" fill="#3F3D56" transform="translate(41.500000, 27.000000) scale(-1, 1) translate(-41.500000, -27.000000) " x="18" y="26" width="47" height="2"></rect>
                    <rect id="Rectangle" fill="#3F3D56" transform="translate(41.500000, 33.000000) scale(-1, 1) translate(-41.500000, -33.000000) " x="18" y="32" width="47" height="2"></rect>
                    <rect id="Rectangle" fill="#3F3D56" transform="translate(41.500000, 38.000000) scale(-1, 1) translate(-41.500000, -38.000000) " x="18" y="37" width="47" height="2"></rect>
                    <rect id="Rectangle" fill="#F2F2F2" transform="translate(56.500000, 64.000000) scale(-1, 1) translate(-56.500000, -64.000000) " x="39" y="63" width="35" height="2"></rect>
                    <rect id="Rectangle" fill="#F2F2F2" transform="translate(49.500000, 68.000000) scale(-1, 1) translate(-49.500000, -68.000000) " x="25" y="67" width="49" height="2"></rect>
                    <circle id="Oval" fill="#3F3D56" transform="translate(42.500000, 4.500000) scale(-1, 1) translate(-42.500000, -4.500000) " cx="42.5" cy="4.5" r="3.5"></circle>
                </g>
                <g id="Group-10" transform="translate(116.000000, 78.000000)" fill="#D0CDE1">
                    <path d="M2.41194974,2.098932 L62.1068278,6.482562 L78.9884743,7.72222934 L77.9401595,6.67448371 L81.1105543,52.5086449 L82.6957517,75.4257284 C82.7597991,76.3516672 82.8255137,77.2775073 82.8878938,78.2035564 C82.9397533,78.9734496 83.1518678,79.715212 82.2394264,79.9052177 C80.4251282,80.2830169 78.5360064,80.4403341 76.6979889,80.6721613 C72.9618897,81.1433987 69.217369,81.5399304 65.4644268,81.8617566 C50.4487643,83.1500662 35.3544531,83.2446454 20.3238093,82.1446023 C16.5681328,81.8696974 12.8189492,81.5198722 9.07625839,81.0951265 C7.6843534,80.9372519 5.95672975,80.8779771 5.44844625,79.3181074 C4.92432663,77.7096577 4.83436402,75.8812137 4.59746133,74.2123803 C3.54199921,66.7772716 2.8227418,59.3040533 2.43968908,51.7927256 C1.65964833,36.8227207 2.19038502,21.8132183 4.02583918,6.9355971 C4.2508522,5.11367531 4.49655403,3.29455208 4.76294466,1.47822741 C4.95544117,0.159114754 2.93552328,-0.410373943 2.74121427,0.921158027 C0.487518675,16.295576 -0.379341246,31.8413004 0.151091703,47.3707983 C0.421897392,55.1402048 1.04419395,62.8866809 2.01798137,70.6102267 C2.26436095,72.5609827 2.53187471,74.5089401 2.82052265,76.454099 C3.05061686,78.0018455 3.10728645,79.827102 4.02897619,81.1571302 C4.91820364,82.4403261 6.41148068,82.8519751 7.87898192,83.0475024 C9.74674298,83.296359 11.6268836,83.4746886 13.5020457,83.6575527 C29.0706036,85.1747617 44.7378233,85.4063925 60.3444704,84.3500908 C64.2723806,84.0841312 68.1936334,83.7368567 72.1082287,83.3082674 C74.0366019,83.0970132 75.9626688,82.8659833 77.8864295,82.6151778 C78.8280296,82.4924129 79.7690739,82.3654521 80.7095625,82.2342955 C81.5875651,82.1719805 82.4569641,82.0206916 83.3043732,81.7827584 C85.0708609,81.1462321 85.0702742,79.4432702 84.9605019,77.85628 L84.5521962,71.9534 L83.7355791,60.1476282 L80.4450947,12.5773231 L80.0367833,6.67443726 C80.0206581,6.10259516 79.560627,5.6428138 78.9884743,5.62669744 L19.2935962,1.24306743 L2.41194974,0.00338847492 C1.06586839,-0.0954609302 1.07215404,2.00048902 2.41194974,2.09887393 L2.41194974,2.098932 Z" id="Path"></path>
                    <path d="M27.5125354,26.7411577 C27.8140633,25.9383942 27.0558294,27.6674483 27.4366114,26.9024633 C27.5378046,26.6991603 27.6323782,26.493643 27.7396679,26.2932887 C27.9533399,25.8948085 28.1900425,25.5091827 28.4485663,25.1383812 C28.7059661,24.7687904 29.0970754,24.626237 28.3358892,25.2690935 C28.4935004,25.1072592 28.6410097,24.9358346 28.7775777,24.7557955 C29.1328798,24.3653053 29.5117243,23.9970243 29.9119791,23.653025 C30.1995009,23.4056035 30.7437948,23.1950397 29.7699704,23.7430218 C29.9625292,23.634634 30.1412329,23.4723902 30.3251903,23.3483735 C30.7024465,23.0940584 31.0915334,22.8587052 31.492451,22.6423142 C31.6927993,22.5340973 31.8956777,22.4307831 32.1010861,22.3323716 C32.4498689,22.1652445 33.0307009,22.107764 31.932611,22.3894791 C32.403974,22.2685568 32.860122,22.044934 33.3315664,21.9107545 C33.7321856,21.7967297 34.1372391,21.7007638 34.546727,21.6228566 C34.9125264,21.5537389 35.576361,21.6059574 34.3272136,21.6347501 C34.5505859,21.6296046 34.7792121,21.5863835 35.0027471,21.5712325 C35.4532121,21.5404343 35.9049907,21.5336475 36.3561737,21.5509011 C36.581708,21.559642 36.8055569,21.5820655 37.0306611,21.595544 C37.778492,21.640321 35.8988633,21.3872645 37.030417,21.6034342 C37.474273,21.6880015 37.9127335,21.7989015 38.3434872,21.9355497 C38.5522455,22.0254346 38.766873,22.1009432 38.9858766,22.16155 L38.405649,21.9108885 C38.5479928,21.972891 38.6890232,22.0377684 38.8287401,22.1055205 C39.2447122,22.3073251 39.6483664,22.533718 40.0375718,22.7835039 C40.231444,22.9078411 40.4168951,23.0428189 40.6070361,23.1724764 C41.2040711,23.5796301 39.8069058,22.4872205 40.6536052,23.2314196 C40.940881,23.483936 41.2164384,23.7491211 41.4802776,24.0269747 C41.6386849,24.1935695 41.7926676,24.3642531 41.9422256,24.5390256 C42.1939532,24.8329606 42.3864596,25.3698068 41.8614431,24.4075791 C42.3420176,25.2883644 42.942621,26.0872702 43.3952239,26.9953039 C43.7812887,27.7698341 43.0433899,26.033286 43.3365955,26.8486831 C43.4156345,27.0685356 43.5006363,27.2856434 43.5752294,27.5071684 C43.724431,27.9503348 43.8531735,28.3997384 43.9614569,28.8553791 C44.0698856,29.3117035 44.1229754,29.7775673 44.2229307,30.2342414 C43.9478343,28.9773562 44.1490118,29.7043647 44.1761001,30.0458622 C44.2007455,30.3565351 44.2156099,30.6677792 44.2206932,30.9795943 C44.2268923,31.3686212 44.2174793,31.757547 44.1924542,32.1463719 C44.1776518,32.3740213 44.1267821,32.6160526 44.1298216,32.8433174 C44.1140719,31.6632885 44.2150036,32.2509778 44.1418169,32.6473452 C44.0572895,33.1062492 43.9485826,33.5603426 43.816153,34.0077175 C43.749706,34.2317967 43.6772342,34.4538985 43.5987377,34.674023 C43.5289741,34.8692804 43.4554446,35.0630965 43.3781491,35.2554713 C43.6035691,34.7289162 43.6215369,34.6788732 43.4320526,35.1053425 C42.2736199,37.4284494 40.8303155,39.5945279 39.6909161,41.925694 C36.8643667,47.7379048 35.913762,54.2886409 36.9712133,60.6675075 C37.2623419,61.7254373 37.9541251,62.6274795 38.8990616,63.1813013 C39.8786991,63.7442995 41.0404137,63.8966894 42.131524,63.605325 C44.4960627,62.8380731 45.4256776,60.7680635 45.0614647,58.4311284 C44.9331658,57.6078936 45.1287583,59.1651821 45.0448433,58.3362599 C45.0088573,57.9807653 44.9728713,57.6259116 44.947788,57.2694089 C44.8977068,56.5568501 44.8773019,55.843122 44.8865735,55.1282246 C44.8944038,54.5159343 44.9237644,53.9045025 44.9746555,53.2939294 C44.9763177,52.9358963 45.0132482,52.5789034 45.0849091,52.2281505 C45.0842291,52.2304174 44.9497814,53.0738379 45.0411354,52.5883653 C45.0788358,52.3880284 45.1057265,52.1851684 45.1415033,51.9843711 C45.382552,50.6273777 45.7308937,49.2917649 46.1832315,47.9901743 C46.2839074,47.7010468 46.3939924,47.4157479 46.5000965,47.1286542 C46.7801677,46.3708192 46.2087855,47.7370246 46.5473048,47.0035245 C46.849257,46.349229 47.1617865,45.7035114 47.5056526,45.0701243 C48.9497532,42.4100361 50.583158,39.9176228 51.6352077,37.0564169 C52.4376416,34.8121628 52.7549373,32.422467 52.566043,30.0458797 C52.1768398,25.1401236 50.10238,20.1625635 46.2360772,16.9863103 C42.1838531,13.6039442 36.7641462,12.3656987 31.6505348,13.6539378 C26.0330672,15.0157432 21.4533434,19.079592 19.4222549,24.5047844 C18.6473182,26.5679353 20.2819551,29.2061769 22.3522014,29.678981 C24.7385572,30.2239737 26.6828177,28.9501776 27.5125354,26.7411635 L27.5125354,26.7411577 Z" id="Path"></path>
                    <path d="M41.9940476,76.9047619 C43.9500561,76.9047619 45.5357143,75.3191037 45.5357143,73.3630952 C45.5357143,71.4070867 43.9500561,69.8214286 41.9940476,69.8214286 C40.0380391,69.8214286 38.452381,71.4070867 38.452381,73.3630952 C38.4739359,75.3101055 40.0470374,76.883207 41.9940476,76.9047619 L41.9940476,76.9047619 Z" id="Path"></path>
                </g>
                <g id="Group-3" transform="translate(0.000000, 212.000000)">
                    <path d="M117.733981,49.059282 L90.5650485,49.059282 C89.7180548,49.0611452 88.9885282,49.6577527 88.8174757,50.4884487 L81.4660194,86.806782 C81.4544493,86.9056102 81.4544493,87.0054538 81.4660194,87.104282 L80.7669903,87.1801153 L80.1436893,87.244282 C80.1061285,87.2373055 80.0691344,87.2275567 80.0330097,87.2151153 C79.8395729,87.0787258 79.7126429,86.8668819 79.6834951,86.631782 C79.326956,85.3386299 79.0679742,84.0204732 78.9087379,82.6884487 C78.8184392,81.2276244 78.8184392,79.7626063 78.9087379,78.301782 C78.9436893,77.1351153 78.9087379,75.9976153 78.9087379,74.8484487 C79.1019924,73.5557708 79.2167663,72.2525443 79.2524272,70.9459487 C79.3217587,69.5527971 79.1843409,68.1570524 78.8446602,66.804282 C78.6299293,66.0701464 78.3572246,65.3542778 78.0291262,64.6634487 C77.7728155,62.7034487 77.4932039,60.7376153 77.207767,58.7834487 C76.992233,57.3309487 76.776699,55.866782 76.4912621,54.431782 C76.5553398,54.1926153 76.607767,53.9534487 76.6485437,53.7084487 C76.9683631,51.2924843 75.9919015,48.886742 74.0796117,47.379282 C73.4967161,46.9049479 72.8519389,46.5124418 72.1631068,46.2126153 C71.5916543,45.9780526 71.0083319,45.7736062 70.415534,45.6001153 L61.0427184,42.6834487 C60.1747573,41.4176153 59.2951456,40.1401153 58.5145631,38.8334487 C57.753796,37.6564009 57.0894879,36.4195789 56.5281553,35.1351153 C62.8453657,30.6214651 64.5451984,21.9543559 60.4019417,15.3834487 C60.2446602,15.1384487 60.0815534,14.8934487 59.9126214,14.6601153 C59.9807774,13.5316075 59.8486363,12.3999353 59.5223301,11.3176153 C59.45002,10.9161085 59.3307523,10.5245239 59.1669903,10.1509487 C58.913899,9.64491058 58.590275,9.17745912 58.2058252,8.76261534 C58.1300971,8.67511534 58.0427184,8.59344867 57.961165,8.50594867 C57.1937037,7.66163633 56.3339422,6.90634345 55.3980583,6.254282 C52.2873786,3.996782 48.1165049,1.25511534 44.3009709,0.33344867 C42.4154472,-0.0962251852 40.4587188,-0.10618172 38.568932,0.304282003 L38.2776699,0.222615337 L37.7242718,0.111782003 C37.8640777,0.170115337 37.9980583,0.24594867 38.1378641,0.310115337 C36.1366281,-0.137988159 34.0573604,-0.0999853199 32.0737864,0.42094867 C29.6038835,1.15594867 28.7417476,3.11594867 27.6990291,5.256782 C26.0062806,8.70190599 23.4389472,11.6409386 20.2543689,13.779282 C18.2038835,15.1559487 15.7747573,16.3459487 14.7902913,18.6034487 C13.8699029,20.709282 14.4932039,23.1184487 14.7087379,25.4109487 C15.2403315,31.730054 12.5469622,37.8901745 7.54951456,41.7851153 C4.74757282,43.9434487 1.00776699,45.751782 0.40776699,49.2284487 C-0.0174757282,51.7076153 1.38058252,54.0759487 2.43495146,56.3626153 C4.66601942,61.1809487 5.42912621,67.066782 2.80776699,71.6926153 C2.06796117,73.0051153 1.06019417,74.206782 0.66407767,75.659282 C-0.0349514563,78.2434487 1.45048544,81.0551153 3.67572816,82.5601153 C5.90097087,84.0651153 8.69126214,84.4676153 11.3825243,84.4559487 C11.8427184,84.4559487 12.3087379,84.4559487 12.7805825,84.391782 C12.5475728,86.649282 12.2563107,88.906782 11.8893204,91.146782 C11.3475728,94.454282 10.6543689,97.7734487 10.8640777,101.115949 C10.9747573,102.924282 11.3883495,104.796782 12.5592233,106.190949 C14.4,108.390115 17.6038835,108.839282 20.4757282,108.728449 C25.0194175,108.553449 29.4873786,107.369282 34.007767,107.106782 C33.923113,107.289553 33.8793739,107.488643 33.8796117,107.690115 C33.8796117,108.477615 34.3631068,109.346782 34.1417476,110.128449 C34.0480575,110.401814 33.910314,110.657979 33.7339806,110.886782 C32.568932,112.601782 31.1883495,114.515115 31.5902913,116.550949 C31.7883495,117.542615 32.4058252,118.534282 32.1203883,119.508449 C31.9399565,119.963515 31.6882564,120.38688 31.3747573,120.762615 C29.7786408,123.142615 30.1106796,126.275115 30.5126214,129.115949 L31.0485437,129.267615 C30.8970874,129.594282 30.7456311,129.926782 30.6058252,130.259282 C29.9527778,131.733509 29.5756488,133.315301 29.4932039,134.925949 C29.5378071,136.733938 29.8439027,138.525905 30.4019417,140.245949 C31.1941748,143.162615 32.015534,146.079282 33.0582524,148.896782 C33.9436893,151.317615 34.9864078,153.668449 36.0174757,156.025115 C36.3436893,156.748449 36.6640777,157.477615 36.984466,158.206782 C38.9728155,162.717893 40.9650485,167.232893 42.961165,171.751782 C43.2119127,172.270251 43.4071744,172.813832 43.5436893,173.373449 C43.6485437,173.851782 43.6718447,174.335949 43.7475728,174.820115 C44.0621359,176.698449 45.2854369,178.279282 46.1825243,179.965115 C49.2058252,185.652615 48.4543689,192.512615 47.6330097,198.900115 C48.0820383,199.349392 48.5848932,199.741262 49.1300971,200.066782 C49.0427184,200.708449 48.9553398,201.355949 48.8213592,201.974282 C48.023301,205.620115 47.0737864,209.236782 46.5203883,212.940949 C46.2418972,214.741571 46.1055528,216.561372 46.1126214,218.383449 C46.1126214,220.133449 46.7359223,221.912615 46.7359223,223.633449 C47.161165,225.383449 47.807767,227.051782 48.2621359,228.784282 C48.4485437,231.473449 48.7631068,234.162615 49.1650485,236.845949 C49.2970874,239.280393 49.4330097,241.716782 49.5728155,244.155115 C49.6951456,246.313449 49.7941748,248.582615 48.8271845,250.519282 C48.8271845,250.583449 48.7572816,250.647615 48.7223301,250.711782 C47.0048256,250.5951 45.3480121,251.370675 44.3359223,252.765115 C43.3166869,254.249468 42.729771,255.988424 42.6407767,257.787615 C42.5173261,258.546993 42.6039558,259.325726 42.8912621,260.039282 C43.1708738,260.622615 43.6601942,261.013449 43.9805825,261.550115 C44.294744,262.17393 44.4921749,262.850082 44.5631068,263.545115 C45.215534,267.581782 45.8737864,271.630115 46.223301,275.707615 C46.3281553,276.950115 46.4271845,278.262615 47.1553398,279.277615 C47.8834951,280.292615 49.4854369,280.788449 50.4,279.930949 C49.4765807,275.259081 49.0199597,270.506753 49.0368932,265.744282 C49.3421364,265.700566 49.6520384,265.700566 49.9572816,265.744282 C50.1378641,266.566782 50.3883495,267.383449 50.6213592,268.194282 C50.7770976,268.789747 50.9716905,269.374337 51.2038835,269.944282 C51.1106796,270.743449 51.2038835,271.945115 51.168932,272.528449 C51.1223301,275.106782 51.1223301,277.683171 51.168932,280.257615 C51.2038835,281.727615 51.2563107,283.197615 51.3262136,284.667615 C51.3196507,284.830271 51.3515875,284.992175 51.4194175,285.140115 C51.4640046,285.196842 51.5339607,285.22749 51.6058252,285.221782 C52.0951456,285.221782 52.5902913,285.221782 53.0796117,285.221782 C53.1325328,284.640037 53.1539234,284.055846 53.1436893,283.471782 C53.1436893,282.130115 53.1436893,280.792338 53.1436893,279.458449 C53.1436893,278.315115 53.1436893,277.171782 53.1436893,276.028449 C53.4873786,278.075949 53.976699,280.111782 54.4718447,282.124282 L55.5203883,286.429282 L55.6252427,286.860949 L56.5165049,290.506782 C56.5442449,290.637761 56.5872582,290.765023 56.6446602,290.885949 C56.7579611,291.062509 56.9067537,291.213495 57.0815534,291.329282 C60.8329137,294.060598 65.7512956,294.589331 69.9961165,292.717615 C70.1568157,292.652863 70.3047463,292.560032 70.4330097,292.443449 C70.6665756,292.130711 70.772769,291.740795 70.7300971,291.352615 C70.6747201,290.189517 70.9026274,289.03038 71.3941748,287.975115 C71.6626986,287.585742 71.8818541,287.164457 72.0466019,286.720949 C72.1467501,286.002051 72.0075318,285.27014 71.6504854,284.638449 L70.6893204,282.392615 C71.1442779,282.375149 71.5976417,282.328386 72.0466019,282.252615 C72.7281553,281.669282 72.2330097,280.461782 72.7980583,279.773449 C73.0331398,279.559881 73.2843755,279.364855 73.5495146,279.190115 C74.2601942,278.565949 74.1902913,277.440115 73.8699029,276.547615 C72.8330097,273.671782 70.0601942,271.840115 67.4621359,270.218449 L67.1242718,270.008449 C65.0038835,260.091782 61.2640777,250.320949 62.2601942,240.258449 C62.4757282,238.111782 62.9067961,235.988449 63.2563107,233.841782 C65.0038835,223.283449 64.8932039,212.450949 66.9087379,201.945115 C67.9493696,201.886101 68.9622258,201.586614 69.8679612,201.070115 C71.5747573,200.008449 72.407767,197.955115 72.6349515,195.965949 C72.8621359,193.976782 72.5883495,191.970115 72.6349515,189.963449 C72.6873786,187.087615 73.3747573,184.264282 74.0621359,181.458449 C74.8660194,178.185949 73.4796117,174.715115 74.3184466,171.454282 C74.6371205,170.451029 74.890085,169.428022 75.0757282,168.391782 C75.2504854,166.927615 74.9592233,165.381782 75.4776699,163.993449 C75.7106796,163.357615 76.1126214,162.791782 76.3805825,162.167615 C77.5456311,159.530949 76.2640777,156.334282 77.4349515,153.685949 C77.8130315,153.071777 78.0940199,152.402765 78.2679612,151.702615 C78.3082566,151.157694 78.2389264,150.610216 78.0640777,150.092615 C77.7669903,148.879282 77.4815534,147.654282 77.2893204,146.423449 C77.2029117,145.999437 77.1657717,145.56684 77.1786408,145.134282 C77.2357412,144.675809 77.3391844,144.224326 77.4873786,143.786782 C78.3728155,140.718449 78.4834951,137.480949 78.5825243,134.278449 C78.6349515,132.580949 78.6815534,130.778449 77.9650485,129.250115 C77.7516905,128.787767 77.4774033,128.356146 77.1495146,127.966782 L77.2368932,127.920115 C76.7883495,126.094282 76.4330097,123.970949 77.0854369,122.203449 C77.3592233,121.450949 77.831068,120.727615 77.7436893,119.928449 C77.6563107,119.129282 77.1087379,118.580949 76.8873786,117.869282 C76.5087379,116.702615 77.0854369,115.442615 77.423301,114.240949 C78.0058252,112.187615 77.8718447,110.005949 77.7378641,107.870949 C77.7443962,107.411621 77.6405033,106.957459 77.4349515,106.546782 C77.2834951,106.295949 77.0563107,106.103449 76.9106796,105.846782 C76.615261,105.215351 76.630335,104.482168 76.9514563,103.863449 C77.2747907,103.260769 77.5381926,102.627726 77.7378641,101.973449 C77.7699177,101.770544 77.7699177,101.563854 77.7378641,101.360949 C78.168932,101.174282 78.5533981,100.894282 78.9669903,100.672615 C80.7145631,99.739282 82.7825243,99.879282 84.7514563,99.826782 C86.7203883,99.774282 88.9106796,99.3834487 90.0873786,97.814282 C90.2033974,97.6175184 90.3627971,97.4499162 90.5533981,97.324282 C90.6160763,97.2923754 90.6826639,97.2688413 90.7514563,97.254282 C91.4679612,97.3534487 91.9165049,97.3476153 91.8174757,97.1609487 C92.1436893,97.0151153 92.2951456,96.659282 92.4873786,96.361782 C92.536507,96.2841664 92.5910096,96.2100959 92.6504854,96.1401153 C93.3810197,95.703847 94.1445134,95.3254707 94.9339806,95.0084487 C94.7927615,94.9911144 94.649957,94.9911144 94.5087379,95.0084487 C95.7227635,94.6142849 96.9964612,94.4365883 98.2718447,94.4834487 C99.4893204,94.4834487 101.586408,94.6526153 102.535922,93.7076153 C104.283495,92.5934487 104.801942,90.359282 105.61165,88.4576153 C105.880966,87.8413976 106.18235,87.2397389 106.514563,86.6551153 L111.040777,86.211782 C111.821058,86.1337749 112.460354,85.5573732 112.619417,84.7884487 L119.41165,51.194282 C119.51441,50.6817617 119.387652,50.1498922 119.064838,49.7390792 C118.742024,49.3282663 118.255602,49.0798037 117.733981,49.059282 Z M32.015534,95.1426153 C29.9822664,96.0231952 27.675986,96.0231952 25.6427184,95.1426153 C25.3398058,95.0084487 25.007767,94.6351153 25.2524272,94.4134487 C25.4970874,94.191782 25.6951456,94.3784487 25.8932039,94.2851153 C26.2718447,94.0984487 25.9980583,93.5384487 25.7883495,93.176782 C25.2058252,92.126782 25.607767,90.796782 26.184466,89.7351153 C26.761165,88.6734487 27.5009709,87.6234487 27.5242718,86.4159487 C27.4888941,86.0278666 27.4888941,85.6373641 27.5242718,85.249282 C27.7089771,84.6987536 28.0021452,84.1909478 28.3864078,83.7559487 C28.4912621,83.604282 28.5786408,83.4409487 28.6718447,83.2776153 C28.8291262,83.5226153 28.9864078,83.761782 29.1495146,84.0009487 C29.6737864,84.8059487 30.1961165,85.616782 30.7165049,86.4334487 C31.1321738,86.9832259 31.3954246,87.6332114 31.4796117,88.3176153 C31.4212313,88.7223509 31.4430047,89.1346369 31.5436893,89.5309487 C31.776699,90.044282 32.4990291,90.4701153 32.231068,90.9659487 C31.9627224,91.5060368 31.9627224,92.1408605 32.231068,92.6809487 C32.5048544,93.1534487 32.9126214,93.544282 33.1864078,94.0109487 C33.2641642,94.151163 33.3304021,94.2974788 33.384466,94.4484487 C32.9417476,94.681782 32.4815534,94.9384487 32.015534,95.1426153 Z M88.5203883,88.8484487 C88.176699,88.9301153 87.8330097,89.011782 87.4893204,89.1051153 C87.4427184,88.8951153 87.4252427,88.7784487 87.4252427,88.7784487 L85.607767,89.3209487 C84.9158066,89.3518957 84.2270632,89.2095449 83.6038835,88.906782 L91.1067961,88.171782 C90.2504854,88.416782 89.3883495,88.644282 88.5203883,88.8484487 Z" id="Shape" fill="url(#linearGradient-1)"></path>
                    <path d="M33.3087379,6.78511534 C31.6389128,10.2077858 29.1021476,13.1322351 25.9514563,15.266782 C23.9184466,16.6376153 21.5184466,17.8159487 20.5456311,20.061782 C19.6368932,22.1559487 20.2543689,24.559282 20.4640777,26.834282 C20.9872726,33.0790002 18.3464228,39.1699355 13.4330097,43.0509487 C10.6660194,45.2034487 6.96699029,47.0001153 6.37281553,50.459282 C5.95339806,52.9209487 7.33980583,55.2834487 8.38252427,57.5526153 C10.584466,62.3476153 11.3417476,68.204282 8.74951456,72.8009487 C8.01553398,74.1076153 7.00194175,75.3034487 6.62912621,76.7501153 C5.93592233,79.3226153 7.4038835,82.116782 9.60582524,83.6101153 C11.807767,85.1034487 14.568932,85.511782 17.2252427,85.5003566 C19.1533981,85.5003566 21.2446602,85.2084487 22.6194175,83.849282 C23.5398058,82.939282 23.9941748,81.6734487 24.4252427,80.454282 L27.7747573,70.951782 C28.3572816,69.236782 29.0213592,67.451782 30.2912621,66.1684487 C32.9883495,63.4151153 37.3805825,63.706782 41.231068,63.7534487 C46.8984509,63.8215785 52.5367298,62.9321633 57.9087379,61.1226153 C61.0543689,60.0551153 64.4679612,58.246782 65.2019417,55.009282 C65.9359223,51.771782 63.7572816,48.8259487 61.8524272,46.2009487 C60.4271845,44.2565042 59.0796117,42.2440042 57.8097087,40.1634487 C56.568932,38.156782 55.3864078,36.039282 55.0427184,33.7059487 C54.4601942,29.826782 56.2951456,26.0584487 57.6990291,22.4009487 C59.1029126,18.7434487 60.0873786,14.4151153 58.0427184,11.0726153 C57.1595202,9.7710096 56.034154,8.65200261 54.7281553,7.776782 C51.6524272,5.53094867 47.5281553,2.806782 43.7592233,1.89094867 C41.7385965,1.41602506 39.6325465,1.44406462 37.6252427,1.97261534 C35.184466,2.73094867 34.3281553,4.679282 33.3087379,6.78511534 Z" id="Path" fill="#3F3D56"></path>
                    <path d="M74.6679612,52.1276153 C75.4237628,54.70243 75.9596718,57.3369102 76.2699029,60.0026153 C77.2019417,66.419282 78.1398058,72.9176153 77.9650485,79.421782 C77.8805781,80.8730505 77.8805781,82.3280135 77.9650485,83.779282 C78.1271289,85.1050975 78.3860756,86.4172268 78.7398058,87.7051153 C78.7653952,87.939963 78.8905909,88.1524538 79.0834951,88.2884487 C79.3048544,88.399282 79.5669903,88.2884487 79.8116505,88.259282 C80.6446602,88.1601153 81.2621359,88.9651153 81.9029126,89.5076153 C83.1926093,90.5513311 84.9929964,90.686083 86.423301,89.8459487 C85.9837057,91.7993214 86.7405533,93.8280172 88.3514563,95.014282 C89.9808153,96.1526806 92.0240048,96.5252662 93.9495146,96.0351153 C92.9825243,95.8834487 92.0563107,96.5601153 91.5262136,97.3826153 C91.3398058,97.674282 91.1883495,98.0301153 90.8679612,98.1759487 C90.5475728,98.321782 89.9941748,98.1351153 89.615534,98.3334487 C89.428078,98.4609754 89.2709607,98.6282689 89.1553398,98.8234487 C87.9902913,100.386782 85.8291262,100.771782 83.8834951,100.824282 C81.9378641,100.876782 79.8757282,100.742615 78.1631068,101.670115 C77.7378641,101.897615 77.3417476,102.189282 76.8990291,102.375949 C75.5475728,102.959282 73.9339806,102.375949 72.8854369,101.378449 C71.8854359,100.302959 71.1757131,98.989955 70.823301,97.5634487 C69.0757282,91.916782 69.4252427,85.8676153 69.7805825,79.9701153 C70.3456311,70.5959487 71.5339806,60.994282 74.6679612,52.1276153 Z" id="Path" fill="#454B69"></path>
                    <path d="M74.6679612,52.1276153 C75.4237628,54.70243 75.9596718,57.3369102 76.2699029,60.0026153 C77.2019417,66.419282 78.1398058,72.9176153 77.9650485,79.421782 C77.8805781,80.8730505 77.8805781,82.3280135 77.9650485,83.779282 C78.1271289,85.1050975 78.3860756,86.4172268 78.7398058,87.7051153 C78.7653952,87.939963 78.8905909,88.1524538 79.0834951,88.2884487 C79.3048544,88.399282 79.5669903,88.2884487 79.8116505,88.259282 C80.6446602,88.1601153 81.2621359,88.9651153 81.9029126,89.5076153 C83.1926093,90.5513311 84.9929964,90.686083 86.423301,89.8459487 C85.9837057,91.7993214 86.7405533,93.8280172 88.3514563,95.014282 C89.9808153,96.1526806 92.0240048,96.5252662 93.9495146,96.0351153 C92.9825243,95.8834487 92.0563107,96.5601153 91.5262136,97.3826153 C91.3398058,97.674282 91.1883495,98.0301153 90.8679612,98.1759487 C90.5475728,98.321782 89.9941748,98.1351153 89.615534,98.3334487 C89.428078,98.4609754 89.2709607,98.6282689 89.1553398,98.8234487 C87.9902913,100.386782 85.8291262,100.771782 83.8834951,100.824282 C81.9378641,100.876782 79.8757282,100.742615 78.1631068,101.670115 C77.7378641,101.897615 77.3417476,102.189282 76.8990291,102.375949 C75.5475728,102.959282 73.9339806,102.375949 72.8854369,101.378449 C71.8854359,100.302959 71.1757131,98.989955 70.823301,97.5634487 C69.0757282,91.916782 69.4252427,85.8676153 69.7805825,79.9701153 C70.3456311,70.5959487 71.5339806,60.994282 74.6679612,52.1276153 Z" id="Path" fill="#000000" opacity="0.1"></path>
                    <path d="M46.2174757,223.936782 C46.7067961,225.972615 47.5106796,227.926782 47.9650485,229.968449 C48.2961265,231.727985 48.4908814,233.510517 48.5475728,235.300115 L49.0485437,244.353449 C49.1708738,246.500115 49.2699029,248.757615 48.3145631,250.682615 C47.6563107,252.018449 46.5145631,253.138449 46.1883495,254.590949 C45.6757282,256.865949 47.3009709,259.018449 48.8271845,260.785949 L56.3184466,269.477615 C58.6485437,272.201782 61.2291262,275.065949 64.7067961,275.993449 C65.2235223,276.169719 65.7805915,276.190004 66.3087379,276.051782 C67.2757282,275.730949 67.7475728,274.558449 67.607767,273.543449 C67.3884863,272.541132 66.93087,271.606618 66.2737864,270.819282 C64.3106796,268.060115 62.1961165,265.347615 60.9378641,262.209282 C59.3184466,258.219282 59.1495146,253.803449 59.2485437,249.498449 C59.6446602,231.940115 64.0543689,214.585949 63.5533981,196.998449 C59.7262136,196.706782 55.7475728,196.070949 51.9029126,196.105949 C48.4834951,196.140949 48.8912621,199.605949 48.2970874,202.376782 C47.5048544,206.005115 46.5495146,209.604282 46.0194175,213.285115 C45.7430149,215.078072 45.6086155,216.890108 45.6174757,218.704282 C45.6174757,220.471782 46.2174757,222.239282 46.2174757,223.936782 Z" id="Path" fill="#FBBEBE"></path>
                    <path d="M46.2174757,223.936782 C46.7067961,225.972615 47.5106796,227.926782 47.9650485,229.968449 C48.2961265,231.727985 48.4908814,233.510517 48.5475728,235.300115 L49.0485437,244.353449 C49.1708738,246.500115 49.2699029,248.757615 48.3145631,250.682615 C47.6563107,252.018449 46.5145631,253.138449 46.1883495,254.590949 C45.6757282,256.865949 47.3009709,259.018449 48.8271845,260.785949 L56.3184466,269.477615 C58.6485437,272.201782 61.2291262,275.065949 64.7067961,275.993449 C65.2235223,276.169719 65.7805915,276.190004 66.3087379,276.051782 C67.2757282,275.730949 67.7475728,274.558449 67.607767,273.543449 C67.3884863,272.541132 66.93087,271.606618 66.2737864,270.819282 C64.3106796,268.060115 62.1961165,265.347615 60.9378641,262.209282 C59.3184466,258.219282 59.1495146,253.803449 59.2485437,249.498449 C59.6446602,231.940115 64.0543689,214.585949 63.5533981,196.998449 C59.7262136,196.706782 55.7475728,196.070949 51.9029126,196.105949 C48.4834951,196.140949 48.8912621,199.605949 48.2970874,202.376782 C47.5048544,206.005115 46.5495146,209.604282 46.0194175,213.285115 C45.7430149,215.078072 45.6086155,216.890108 45.6174757,218.704282 C45.6174757,220.471782 46.2174757,222.239282 46.2174757,223.936782 Z" id="Path" fill="#000000" opacity="0.05"></path>
                    <path d="M48.4834951,250.910115 C46.7359223,250.548449 44.9184466,251.493449 43.823301,252.916782 C42.8128764,254.393422 42.2320502,256.122164 42.1456311,257.910115 C42.0176024,258.665527 42.1044049,259.441771 42.3961165,260.150115 C42.6699029,260.704282 43.1533981,261.124282 43.4679612,261.655115 C43.7823652,262.274695 43.9798491,262.947073 44.0504854,263.638449 C44.7029126,267.657615 45.3553398,271.682615 45.6932039,275.736782 C45.7980583,276.973449 45.8970874,278.280115 46.6194175,279.289282 C47.3417476,280.298449 48.9495146,280.788449 49.8291262,279.942615 C48.9176703,275.314345 48.4630543,270.607516 48.4718447,265.890115 C50.5165049,265.610115 52.2990291,267.220115 53.6330097,268.806782 C54.9986701,270.414694 56.250272,272.116352 57.3786408,273.899282 C58.3277243,275.587706 59.4273485,277.186719 60.6640777,278.676782 C63.3863275,281.567784 67.3577015,282.92761 71.2776699,282.310949 C71.9533981,281.727615 71.4582524,280.525949 72.0174757,279.843449 C72.2505444,279.629944 72.4998395,279.434912 72.7631068,279.260115 C73.4679612,278.641782 73.392233,277.510115 73.0776699,276.635115 C72.0582524,273.770949 69.3145631,271.968449 66.7456311,270.335115 C62.0854369,267.418449 57.3669903,264.501782 52.6776699,261.678449 C50.8895548,260.56979 49.5284341,258.888127 48.815534,256.906782 C48.6466019,256.399282 47.9126214,250.717615 48.4834951,250.910115 Z" id="Path" fill="#3F3D56"></path>
                    <path d="M48.4834951,250.910115 C46.7359223,250.548449 44.9184466,251.493449 43.823301,252.916782 C42.8128764,254.393422 42.2320502,256.122164 42.1456311,257.910115 C42.0176024,258.665527 42.1044049,259.441771 42.3961165,260.150115 C42.6699029,260.704282 43.1533981,261.124282 43.4679612,261.655115 C43.7823652,262.274695 43.9798491,262.947073 44.0504854,263.638449 C44.7029126,267.657615 45.3553398,271.682615 45.6932039,275.736782 C45.7980583,276.973449 45.8970874,278.280115 46.6194175,279.289282 C47.3417476,280.298449 48.9495146,280.788449 49.8291262,279.942615 C48.9176703,275.314345 48.4630543,270.607516 48.4718447,265.890115 C50.5165049,265.610115 52.2990291,267.220115 53.6330097,268.806782 C54.9986701,270.414694 56.250272,272.116352 57.3786408,273.899282 C58.3277243,275.587706 59.4273485,277.186719 60.6640777,278.676782 C63.3863275,281.567784 67.3577015,282.92761 71.2776699,282.310949 C71.9533981,281.727615 71.4582524,280.525949 72.0174757,279.843449 C72.2505444,279.629944 72.4998395,279.434912 72.7631068,279.260115 C73.4679612,278.641782 73.392233,277.510115 73.0776699,276.635115 C72.0582524,273.770949 69.3145631,271.968449 66.7456311,270.335115 C62.0854369,267.418449 57.3669903,264.501782 52.6776699,261.678449 C50.8895548,260.56979 49.5284341,258.888127 48.815534,256.906782 C48.6466019,256.399282 47.9126214,250.717615 48.4834951,250.910115 Z" id="Path" fill="#000000" opacity="0.05"></path>
                    <path d="M47.7262136,218.838449 C46.7883495,230.569282 49.415534,242.247615 51.7514563,253.780115 C51.9709893,254.70173 52.0901315,255.644457 52.1067961,256.591782 C52.0088792,257.772482 51.8140462,258.943103 51.5242718,260.091782 C50.638835,264.851782 51.768932,269.728449 52.8932039,274.435949 C53.6737864,277.696782 54.7747573,281.377615 57.8097087,282.800949 C59.9475728,283.810115 62.4699029,283.384282 64.8,282.911782 C65.5657154,282.830491 66.2937904,282.537644 66.9029126,282.065949 C67.7417476,281.278449 67.7708738,279.977615 67.7009709,278.834282 C66.8970874,265.884282 60.3495146,253.465115 61.6252427,240.550115 C61.8349515,238.415115 62.2601942,236.303449 62.6097087,234.180115 C64.415534,223.201782 64.1825243,211.902615 66.5126214,201.035115 C66.6283567,200.654861 66.6283567,200.248703 66.5126214,199.868449 C66.3154978,199.495382 66.0027254,199.196505 65.6213592,199.016782 C63.5009709,197.745115 61.2349515,196.619282 58.7883495,196.275115 C56.8776699,196.006782 54.4776699,196.216782 52.8699029,197.400949 C51.2621359,198.585115 51.0757282,201.320949 50.5805825,203.275115 C49.1925585,208.373007 48.2376974,213.579349 47.7262136,218.838449 Z" id="Path" fill="#FBBEBE"></path>
                    <path d="M50.784466,284.714282 C50.7749529,284.874658 50.8049597,285.034917 50.8718447,285.180949 C50.9158322,285.239036 50.9855286,285.271751 51.0582524,285.268449 C51.5475728,285.268449 52.031068,285.268449 52.5203883,285.268449 C52.5786408,284.685115 52.5786408,284.101782 52.584466,283.518449 L52.584466,279.528449 C52.584466,276.366782 52.584466,273.193449 52.4446602,270.049282 C52.4466521,269.932423 52.4289273,269.816065 52.392233,269.705115 C52.3585868,269.63601 52.3004355,269.581937 52.2291262,269.553449 C51.8854369,269.390115 51.0640777,268.882615 50.7728155,269.465949 C50.4815534,270.049282 50.6097087,271.886782 50.592233,272.650949 C50.5456311,275.213726 50.5456311,277.776504 50.592233,280.339282 C50.6582524,281.797615 50.7223301,283.255949 50.784466,284.714282 Z" id="Path" fill="#3F3D56"></path>
                    <path d="M76.3631068,145.921782 C76.3507386,146.352394 76.3878759,146.783002 76.4737864,147.205115 C76.6834951,148.430115 76.9456311,149.643449 77.2427184,150.850949 C77.4116914,151.367818 77.4789528,151.912599 77.4407767,152.455115 C77.2671979,153.149839 76.990318,153.814487 76.6194175,154.426782 C75.4543689,157.034282 76.7067961,160.260115 75.576699,162.861782 C75.3087379,163.485949 74.9126214,164.028449 74.6796117,164.681782 C74.1728155,166.064282 74.4582524,167.598449 74.2893204,169.056782 C74.1056413,170.087154 73.8546162,171.104341 73.5378641,172.101782 C72.7165049,175.345115 74.0737864,178.798449 73.2815534,182.053449 C72.6058252,184.841782 71.9184466,187.653449 71.8718447,190.517615 C71.831068,192.506782 72.1048544,194.501782 71.8718447,196.485115 C71.638835,198.468449 70.8174757,200.504282 69.1339806,201.560115 C67.8058252,202.394282 66.1572816,202.487615 64.584466,202.516782 C61.561165,202.569282 58.5203883,202.481782 55.4970874,202.248449 C52.4737864,202.015115 49.2291262,201.519282 47.1029126,199.366782 C47.9126214,193.014282 48.6524272,186.195115 45.6640777,180.530949 C44.7786408,178.856782 43.5669903,177.281782 43.2582524,175.415115 C43.176699,174.936782 43.1533981,174.452615 43.0543689,173.980115 C42.9163234,173.42284 42.7211108,172.88135 42.4718447,172.364282 C40.5029126,167.864838 38.5320388,163.371226 36.5592233,158.883449 C36.2446602,158.160115 35.9300971,157.436782 35.6038835,156.713449 C34.584466,154.380115 33.5592233,152.046782 32.6912621,149.631782 C31.6601942,146.808449 30.8446602,143.915115 30.0640777,141.021782 C29.5115726,139.308778 29.209415,137.524751 29.1669903,135.725115 C29.251822,134.132972 29.6248726,132.569518 30.2679612,131.110949 C30.6174757,130.259282 31.0252427,129.425115 31.4330097,128.608449 C43.1475281,125.841216 55.203692,124.807462 67.2174757,125.540115 C69.138559,125.575287 71.0441715,125.891693 72.8737864,126.479282 C74.1135775,126.918146 75.2302242,127.648275 76.1300971,128.608449 C76.5444582,129.054917 76.8846942,129.564995 77.1378641,130.119282 C77.8427184,131.659282 77.7961165,133.432615 77.7495146,135.124282 C77.6446602,138.303449 77.5398058,141.540949 76.6660194,144.580115 C76.5192077,145.015706 76.4176987,145.465312 76.3631068,145.921782 Z" id="Path" fill="#3F3D56"></path>
                    <path d="M68.1495146,278.204282 C66.3729917,279.54978 64.2881756,280.428183 62.0854369,280.759282 C60.1398058,281.045115 58.007767,280.840949 56.4640777,279.592615 C54.7165049,278.198449 54.0932039,275.830115 53.592233,273.636782 L52.9223301,270.720115 C52.6776699,269.670115 52.438835,268.620115 52.2466019,267.558449 C51.7462227,264.754881 51.599443,261.899481 51.8097087,259.059282 C50.2135922,259.683449 49.2582524,261.579282 49.1533981,263.288449 C49.0485437,264.997615 49.5786408,266.671782 50.0621359,268.316782 C50.2527729,269.111129 50.5444786,269.877674 50.9300971,270.597615 C51.215534,271.075949 51.5883495,271.501782 51.8330097,272.003449 C52.1381433,272.745707 52.3135153,273.534991 52.3514563,274.336782 C52.7136903,276.971971 53.237003,279.582429 53.9184466,282.153449 L54.9553398,286.435115 L55.0601942,286.866782 L55.9398058,290.495115 C55.9666593,290.624466 56.0097184,290.749903 56.0679612,290.868449 C56.1774462,291.046094 56.3246127,291.197448 56.4990291,291.311782 C60.2009802,294.029208 65.0715386,294.556547 69.2679612,292.694282 C69.427962,292.628165 69.5756685,292.535474 69.7048544,292.420115 C69.9293895,292.107831 70.0310204,291.72359 69.9902913,291.340949 C69.9400327,290.181995 70.1677456,289.027848 70.6543689,287.975115 C70.9181026,287.58679 71.1333,287.167552 71.2951456,286.726782 C71.3910179,286.01243 71.2541387,285.286168 70.9048544,284.655949 L68.7495146,279.604282 C68.6223775,279.10957 68.4200117,278.637383 68.1495146,278.204282 Z" id="Path" fill="#3F3D56"></path>
                    <path d="M63.0932039,68.0351153 C63.012095,69.1469179 62.7929302,70.2442637 62.4407767,71.301782 C62.1788815,72.0692886 61.7186071,72.7536147 61.1067961,73.2851153 C60.1048544,71.931782 58.3165049,71.4651153 56.9592233,70.4676153 C55.8427836,69.517832 54.8713051,68.409398 54.0757282,67.1776153 C52.3281553,64.844282 50.3359223,62.7734487 48.4718447,60.5684487 C48.1864078,60.2301153 47.8893204,59.8976153 47.638835,59.559282 C46.6858679,58.3961481 45.8231565,57.161713 45.0582524,55.866782 C43.5029126,53.1834487 42.4368932,50.0976153 40.0951456,48.0676153 C38.8194175,46.959282 37.2174757,46.2301153 36.0873786,44.9759487 C36.7765477,43.7942146 37.2259186,42.4878413 37.4097087,41.131782 C37.6776699,39.8309487 37.9398058,38.524282 38.0796117,37.2001153 C38.1203883,36.8501153 38.1436893,36.5001153 38.1553398,36.1501153 C38.1553398,35.9984487 38.1553398,35.8526153 38.1553398,35.7009487 C38.1553398,34.621782 37.4621359,32.784282 38.5631068,32.1659487 C39.5708738,31.5826153 41.2252427,31.5826153 42.4135922,31.6176153 L42.6291262,31.6176153 C45.3881059,31.6483178 48.0783569,32.4834742 50.3708738,34.0209487 C50.892669,34.3407222 51.3476543,34.7587014 51.7106796,35.251782 C52.2421022,36.2229988 52.446398,37.3400034 52.2932039,38.436782 C52.2932039,38.6934487 52.2932039,38.9501153 52.2524272,39.2009487 L52.2524272,39.574282 C52.2116505,40.8226153 52.3339806,42.1584487 53.207767,43.0276153 C54.0815534,43.896782 55.631068,44.0076153 56.9067961,44.404282 C57.1165049,44.474282 57.3145631,44.544282 57.5184466,44.6259487 C58.915451,45.2572228 60.1080402,46.2675828 60.961165,47.5426153 C61.9201756,49.0084369 62.5977795,50.6405058 62.9592233,52.3551153 C63.3149342,53.8887088 63.5390514,55.4499503 63.6291262,57.021782 C63.7547673,60.7014161 63.5755124,64.385147 63.0932039,68.0351153 Z" id="Path" fill="#FBBEBE"></path>
                    <path d="M52.2699029,39.171782 L52.2699029,39.5451153 C50.7145631,40.1284487 46.9223301,38.5184487 45.168932,38.5184487 C41.6737864,38.5184487 40.6135922,39.2009487 38.0970874,37.1709487 C38.1495146,36.6751153 38.184466,36.1734487 38.1961165,35.671782 C38.1961165,34.5926153 37.5029126,32.7551153 38.6038835,32.136782 C39.7048544,31.5184487 41.4582524,31.5534487 42.6466019,31.5884487 C45.4055816,31.6191512 48.0958326,32.4543075 50.3883495,33.991782 C50.9101447,34.3115555 51.36513,34.7295348 51.7281553,35.2226153 C52.4679612,36.3426153 52.3514563,37.8184487 52.2699029,39.171782 Z" id="Path" fill="#000000" opacity="0.1"></path>
                    <path d="M61.9106796,24.6409487 C61.9117952,29.0273075 59.9513539,33.1836794 56.5675488,35.9690304 C53.1837437,38.7543813 48.7321879,39.8759913 44.4349515,39.0259487 C37.5764326,37.6651556 32.6328053,31.642503 32.6271845,24.6409487 C32.5214314,19.3308807 35.2898829,14.3782221 39.8653436,11.6921463 C44.4408043,9.00607058 50.1087102,9.00607058 54.684171,11.6921463 C59.2596317,14.3782221 62.0280832,19.3308807 61.9223301,24.6409487 L61.9106796,24.6409487 Z" id="Path" fill="#FBBEBE"></path>
                    <path d="M37.2699029,41.971782 C36.8101328,41.5857571 36.2467738,41.3442721 35.6504854,41.2776153 C34.7745586,41.3628916 34.0249885,41.9434247 33.7223301,42.7709487 C33.3669903,43.5584487 33.2563107,44.4276153 32.9475728,45.2384487 C32.5286001,46.3286527 31.768348,47.2536829 30.7805825,47.8751153 C30.0873786,48.306782 29.2660194,48.6101153 28.7941748,49.2751153 C28.0485437,50.3309487 28.5029126,51.806782 29.1320388,52.9384487 C31.4621359,57.1559487 35.7145631,59.9384487 39.7864078,62.5109487 L44.376699,65.4276153 C46.2201697,66.650609 48.1298927,67.7703808 50.0970874,68.781782 C53.2834951,70.356782 56.7320388,71.3659487 59.9009709,72.9759487 C61.3572816,73.7109487 62.8135922,74.591782 64.4038835,74.8426153 C64.7433067,73.7566367 64.9563683,72.6350419 65.038835,71.5001153 C65.8252427,64.5001153 66.6,57.3426153 65.038835,50.4709487 C64.8327564,49.140003 64.2734661,47.8889179 63.4194175,46.8484487 C62.8185384,46.2729993 62.1303932,45.7965352 61.3805825,45.436782 C59.520634,44.4340015 57.6070704,43.5343122 55.6485437,42.741782 C54.7302536,42.297058 53.7209023,42.073334 52.7009709,42.0884487 C52.7894055,42.8549926 53.0184923,43.5985812 53.376699,44.281782 C55.8349515,49.7690042 58.2970874,55.2581709 60.7631068,60.749282 C61.3044224,61.750159 61.6111964,62.861266 61.6601942,63.9984487 C61.607767,65.614282 60.4951456,67.189282 60.9669903,68.7409487 C56.6700193,62.4835223 51.7411212,56.6857338 46.2582524,51.439282 C46.0176781,51.2373478 45.8196549,50.989475 45.6757282,50.7101153 C45.5431357,50.269616 45.5152082,49.8041774 45.5941748,49.3509487 C45.6466019,48.4876153 45.4660194,47.3326153 44.7436893,46.7551153 C44.2427184,46.3526153 43.5029126,46.2359487 42.9495146,45.8859487 C41.0213592,44.6609487 39.1631068,43.2784487 37.2699029,41.971782 Z" id="Path" fill="#4586FF"></path>
                    <path d="M76.415534,129.909282 C72.7138172,131.773371 68.6817858,132.889319 64.5495146,133.193449 C60.4292779,133.488053 56.2941703,133.511436 52.1708738,133.263449 L42.7805825,132.907615 C38.5165049,132.738449 34.3281553,132.394282 30.2621359,131.110949 C30.6116505,130.259282 31.0194175,129.425115 31.4271845,128.608449 C43.1417029,125.841216 55.1978668,124.807462 67.2116505,125.540115 C69.1327338,125.575287 71.0383463,125.891693 72.8679612,126.479282 C74.1077522,126.918146 75.224399,127.648275 76.1242718,128.608449 C76.2174757,129.051782 76.3223301,129.489282 76.415534,129.909282 Z" id="Path" fill="#000000" opacity="0.1"></path>
                    <path d="M75.7572816,84.0709487 C74.1378641,89.5601153 75.2504854,95.5684487 76.2582524,101.197615 C76.8385243,101.591515 77.1052355,102.310761 76.9223301,102.988449 C76.7210418,103.637509 76.459715,104.266345 76.1417476,104.866782 C75.821832,105.479162 75.8046082,106.205724 76.0951456,106.832615 C76.2407767,107.089282 76.4679612,107.287615 76.6194175,107.538449 C76.8215663,107.945959 76.9234302,108.395983 76.9165049,108.850949 C77.0446602,110.974282 77.1728155,113.144282 76.6019417,115.191782 C76.2699029,116.358449 75.7048544,117.618449 76.0776699,118.796782 C76.2990291,119.508449 76.8466019,120.109282 76.9223301,120.850115 C76.9980583,121.590949 76.5436893,122.360949 76.2699029,123.107615 C75.623301,124.857615 75.9728155,126.975115 76.4213592,128.795115 C72.7196424,130.659205 68.687611,131.775153 64.5553398,132.079282 C60.4352158,132.376803 56.2999158,132.400188 52.176699,132.149282 L42.7864078,131.793449 C38.4873786,131.630115 34.2699029,131.280115 30.1747573,129.973449 C29.7786408,127.144282 29.4466019,124.029282 31.031068,121.666782 C31.3369256,121.287795 31.5843339,120.865044 31.7650485,120.412615 C32.0446602,119.444282 31.4330097,118.458449 31.2407767,117.495949 C30.838835,115.471782 32.1961165,113.564282 33.3553398,111.866782 C33.5338093,111.639373 33.6717553,111.382832 33.7631068,111.108449 C33.9786408,110.326782 33.5067961,109.469282 33.5009709,108.681782 C33.4961624,108.454754 33.5482332,108.230137 33.6524272,108.028449 C33.8213592,107.695949 34.1475728,107.445115 34.3223301,107.141782 C34.5083053,106.716518 34.5650362,106.245809 34.4854369,105.788449 C34.2679612,102.852338 33.9145631,99.9356709 33.4252427,97.0384487 C33.3786408,96.781782 33.3320388,96.5134487 33.2679612,96.2509487 C33.1848992,95.8430586 33.0415763,95.4498478 32.8427184,95.084282 C32.568932,94.611782 32.1669903,94.2326153 31.8990291,93.7601153 C31.6307967,93.2220527 31.6307967,92.5890113 31.8990291,92.0509487 C32.161165,91.5609487 31.4446602,91.1351153 31.2174757,90.6276153 C31.11988,90.2328208 31.0981347,89.8230441 31.1533981,89.4201153 C31.0704692,88.738171 30.8092418,88.0902321 30.3961165,87.541782 C29.8834951,86.7309487 29.3708738,85.9259487 28.8466019,85.126782 C26.5165049,81.5062264 24.0873786,77.9478931 21.5592233,74.451782 C20.3592233,72.7776153 19.1300971,71.109282 17.8893204,69.464282 C16.8815534,68.134282 15.8446602,66.786782 15.3378641,65.194282 C15.248163,64.9176331 15.1780857,64.6349854 15.1281553,64.3484487 C14.8467639,62.819278 15.0653494,61.2400035 15.7514563,59.8451153 C16.4303504,58.687663 17.2100837,57.5925682 18.0815534,56.5726153 C18.9063035,55.321413 19.8009306,54.1178316 20.761165,52.9676153 C21.7403401,51.8103778 23.1468054,51.1009053 24.6582524,51.001782 C25.5262136,51.001782 26.5398058,51.246782 27.1398058,50.6226153 C27.361165,50.4009487 27.4776699,50.1034487 27.7223301,49.8876153 C28.3572816,49.304282 29.4,49.6951153 30.1631068,50.126782 L44.831068,58.4276153 L47.207767,59.7809487 C47.638835,60.0376153 48.0815534,60.294282 48.5126214,60.556782 C50.5476151,61.7463979 52.4979103,63.0756879 54.3495146,64.5351153 C57.0640777,66.716782 60.0757282,68.7234487 62.4407767,71.2784487 C62.6679612,71.5176153 62.8834951,71.756782 63.0932039,72.0076153 C63.5203883,69.0209487 63.9475728,66.0303931 64.3747573,63.0359487 C64.5326063,62.1744103 64.5893021,61.2973425 64.5436893,60.4226153 C64.4328951,59.5628047 64.2217429,58.7189807 63.9145631,57.9084487 C63.8213592,57.616782 63.7223301,57.3251153 63.6291262,57.0334487 C63.0990291,55.446782 62.568932,53.8659487 62.0446602,52.279282 C61.2699029,49.9459487 60.4427184,47.536782 58.6951456,45.821782 C58.2707513,45.4600549 57.8807351,45.0597331 57.5300971,44.6259487 C57.5300971,44.6259487 57.5300971,44.6259487 57.5300971,44.6259487 C57.1941721,44.1858701 57.0861417,43.6125141 57.238835,43.0801153 L69.5941748,46.941782 C70.176699,47.1284487 70.7592233,47.309282 71.3417476,47.5251153 C72.0255896,47.8241892 72.6646914,48.2168207 73.2407767,48.691782 C75.1313351,50.1981095 76.0933845,52.5877486 75.7747573,54.9859487 C75.6524272,55.761782 75.384466,56.496782 75.2213592,57.2609487 C74.9359223,58.6434487 74.4932039,60.2359487 75.0932039,61.519282 C75.6932039,62.8026153 76.2582524,63.934282 76.8,65.141782 C77.2686175,66.061756 77.6583675,67.0199212 77.9650485,68.0059487 C78.3025771,69.3530948 78.4380412,70.7430384 78.3669903,72.1301153 C78.2937447,75.2254804 77.7597102,78.2925793 76.7825243,81.2301153 C76.415534,82.1576153 76.0485437,83.1026153 75.7572816,84.0709487 Z" id="Path" fill="#454B69"></path>
                    <polygon id="Path" fill="#3F3D56" points="50.5456311 91.024282 79.8407767 88.2651153 84.961165 87.6876153 80.2543689 89.3559487"></polygon>
                    <polygon id="Path" fill="#3F3D56" points="49.8873786 92.4476153 49.8873786 90.236782 80.9417476 88.7026153 82.4563107 90.0034487"></polygon>
                    <path d="M49.9864078,88.241782 C50.638835,88.066782 51.3378641,88.101782 51.9961165,87.944282 C52.8524272,87.7401153 53.6213592,87.2151153 54.4951456,87.104282 C55.0338758,87.0615057 55.5759691,87.1008424 56.1029126,87.2209487 L60.1223301,87.9209487 C60.431068,87.979282 60.792233,88.0726153 60.9029126,88.3701153 C60.9628958,88.6432878 60.8690511,88.9274505 60.6582524,89.1109487 C59.9359223,89.8751153 58.7825243,89.9859487 57.7456311,90.0501153 L54.9436893,90.219282 C54.3979165,90.210616 53.8581972,90.3347237 53.3708738,90.5809487 C52.8867715,90.8583868 52.6669513,91.4404963 52.8466019,91.969282 C52.9967574,92.2238269 53.2200688,92.4271192 53.4873786,92.5526153 C54.6038291,93.1686242 55.8874474,93.4118082 57.1514563,93.246782 C58.1727892,93.0524906 59.1748078,92.7674753 60.1456311,92.3951153 C62.6107059,91.6027887 65.2122058,91.3267897 67.7883495,91.584282 C68.4582524,91.6484487 69.238835,91.8409487 69.4776699,92.4709487 C69.6061963,92.920486 69.5060307,93.4045652 69.2097087,93.7659487 C68.207767,95.1601153 66.215534,95.206782 64.5495146,95.5859487 C62.9567302,95.9498913 61.4830464,96.7148618 60.2679612,97.8084487 C60.6407767,98.5726153 60.3320388,99.4826153 59.9592233,100.240949 C59.5376344,101.118573 59.0344417,101.954486 58.4563107,102.737615 C58.1451106,103.224007 57.7083283,103.617052 57.192233,103.875115 C56.8528196,103.99268 56.4969566,104.055682 56.1378641,104.061782 C52.6571035,104.267648 49.1642473,104.071918 45.7281553,103.478449 C45.3572117,103.452288 45.00515,103.304709 44.7262136,103.058449 C44.5490263,102.821671 44.4383978,102.541694 44.4058252,102.247615 C44.0504854,100.497615 43.7359223,98.7476153 43.4679612,96.956782 C43.2062298,95.846815 43.3125613,94.6816873 43.7708738,93.6376153 C44.2019417,92.826782 44.8776699,92.564282 45.5650485,92.0159487 C47.0563107,90.831782 48.0116505,88.766782 49.9864078,88.241782 Z" id="Path" fill="#FBBEBE"></path>
                    <path d="M87.8213592,51.7601153 L80.5514563,87.8684487 C80.4313615,88.4199176 80.5842543,88.9955352 80.9620796,89.4143813 C81.3399048,89.8332275 81.8962716,90.0438747 82.4563107,89.9801153 L109.875728,87.2851153 C110.652314,87.215969 111.289225,86.6400495 111.436893,85.8734487 L118.153398,52.454282 C118.265846,51.9306816 118.132672,51.3843466 117.791962,50.9715142 C117.451251,50.5586818 116.94052,50.3248107 116.405825,50.336782 L89.5514563,50.336782 C88.7071098,50.3303802 87.9789509,50.9294291 87.8213592,51.7601153 Z" id="Path" fill="#3F3D56"></path>
                    <path d="M101.464078,94.7459487 C103.21165,93.6434487 103.706796,91.4151153 104.504854,89.5309487 C105.145147,88.1493474 105.880914,86.8141615 106.706796,85.5351153 C107.405825,84.3684487 108.104854,82.974282 107.551456,81.7434487 C107.114727,80.9581605 106.393032,80.3712304 105.535922,80.104282 C104.762674,79.7322714 103.88915,79.6236974 103.048544,79.7951153 C102.104854,80.051782 101.405825,80.8334487 100.770874,81.574282 L98.5106796,84.199282 C97.5423024,85.456951 96.3778606,86.5501315 95.0621359,87.436782 C94.2342984,87.8970719 93.3593463,88.266705 92.4524272,88.539282 C90.8330097,89.0759487 89.1902913,89.5484487 87.5300971,89.9451153 C86.5754925,90.1316657 85.6438541,90.421129 84.7514563,90.8084487 C84.3897336,90.9425831 84.0962614,91.2154715 83.9359223,91.566782 C83.8633901,92.0042918 83.9659437,92.4528007 84.2213592,92.8151153 C84.8038835,93.8826153 85.4504854,96.0584487 86.6446602,96.4376153 C87.7819825,96.7193606 88.9417474,96.9008865 90.1106796,96.9801153 C91.2757282,97.1026153 92.1553398,96.6359487 93.1864078,96.1984487 C94.4866312,95.7034171 95.8745222,95.4810461 97.2640777,95.5451153 C98.4524272,95.521782 100.526214,95.6909487 101.464078,94.7459487 Z" id="Path" fill="#FBBEBE"></path>
                    <path d="M86.4524272,89.851782 C86.4524272,89.851782 87.4834951,96.799282 93.9495146,96.0351153 C93.9495146,96.0351153 90.5067961,97.4059487 90.8679612,98.1759487 C91.2291262,98.9459487 82.8873786,96.676782 82.8873786,96.676782 L82.4563107,93.054282 C82.4563107,93.054282 82.1825243,91.0534487 82.4563107,91.0009487 C82.7300971,90.9484487 86.4524272,89.851782 86.4524272,89.851782 Z" id="Path" fill="#454B69"></path>
                    <path d="M86.4524272,89.851782 C86.4524272,89.851782 87.4834951,96.799282 93.9495146,96.0351153 C93.9495146,96.0351153 90.5067961,97.4059487 90.8679612,98.1759487 C91.2291262,98.9459487 82.8873786,96.676782 82.8873786,96.676782 L82.4563107,93.054282 C82.4563107,93.054282 82.1825243,91.0534487 82.4563107,91.0009487 C82.7300971,90.9484487 86.4524272,89.851782 86.4524272,89.851782 Z" id="Path" fill="#000000" opacity="0.1"></path>
                    <path d="M56.568932,60.819282 C57.2068852,61.14027 57.7313728,61.6492002 58.0718447,62.2776153 C58.6152177,63.1405512 59.0256497,64.0805464 59.2893204,65.0659487 C59.6097087,66.2326153 59.761165,67.6034487 60.6466019,68.466782" id="Path" fill="#000000" opacity="0.1"></path>
                    <path d="M29.3825243,80.0634487 C29.8563788,81.753191 29.6602054,83.5609106 28.8349515,85.109282 C26.5048544,81.4887264 24.0757282,77.9303931 21.5475728,74.434282 C20.3475728,72.7601153 19.1184466,71.091782 17.8776699,69.446782 C16.8699029,68.116782 15.8330097,66.769282 15.3262136,65.176782 C15.2365125,64.9001331 15.1664353,64.6174854 15.1165049,64.3309487 C15.7377722,63.4048417 16.6698096,62.7322632 17.7436893,62.4351153 C19.4446602,67.3759487 23.7553398,70.916782 26.8427184,75.1401153 C27.995768,76.6035909 28.8579321,78.2748688 29.3825243,80.0634487 L29.3825243,80.0634487 Z" id="Path" fill="#000000" opacity="0.1"></path>
                    <path d="M51.0990291,105.368449 L40.8932039,105.718449 C40.0252427,105.747615 38.9533981,105.916782 38.6796117,106.745115 C38.5980583,107.007615 38.6097087,107.293449 38.5281553,107.555949 C38.2427184,108.483449 37.0019417,108.594282 36.0291262,108.588449 C35.184466,108.588449 34.3398058,108.623449 33.5009709,108.687615 C33.4961624,108.460587 33.5482332,108.235971 33.6524272,108.034282 C33.8213592,107.701782 34.1475728,107.450949 34.3223301,107.147615 C34.5083053,106.722351 34.5650362,106.251643 34.4854369,105.794282 C34.2679612,102.858171 33.9145631,99.9415042 33.4252427,97.044282 C33.3786408,96.7876153 33.3320388,96.519282 33.2679612,96.256782 C34.0583452,95.7350475 34.9834468,95.4553071 35.9300971,95.451782 C36.768932,95.5451153 37.5378641,96.0351153 38.376699,95.994282 C39.8330097,95.9184487 40.8407767,94.2909487 42.2970874,94.1976153 C42.6081473,94.2203257 42.9206606,94.1826928 43.2174757,94.086782 C43.6776699,93.8534487 43.7533981,93.2409487 43.992233,92.7859487 C44.3417476,92.109282 45.3203883,91.9459487 46.0601942,92.1209487 C46.0399614,93.6663199 46.1392876,95.2109392 46.3572816,96.7409487 C46.4302219,97.4112158 46.5867823,98.0696829 46.823301,98.7009487 C47.1011299,99.3402488 47.4488855,99.9467316 47.8601942,100.509282 C48.9553398,102.142615 50.0038835,103.723449 51.0990291,105.368449 Z" id="Path" fill="#000000" opacity="0.1"></path>
                    <path d="M17.184466,61.8809487 C15.3728155,62.3359487 14.0854369,64.039282 13.5553398,65.8359487 C13.0252427,67.6326153 13.1184466,69.5459487 13.1708738,71.4184487 C13.3495666,78.3678522 12.875638,85.3186936 11.7553398,92.179282 C11.2194175,95.469282 10.5320388,98.7709487 10.7359223,102.095949 C10.8466019,103.898449 11.2601942,105.759282 12.4135922,107.147615 C14.2368932,109.329282 17.4058252,109.778449 20.2485437,109.667615 C25.3514563,109.469282 30.361165,107.970115 35.4699029,108.005115 C36.4427184,108.005115 37.6776699,107.894282 37.968932,106.966782 C38.0504854,106.710115 38.0330097,106.424282 38.1203883,106.161782 C38.3883495,105.333449 39.4601942,105.158449 40.3339806,105.129282 L50.5398058,104.785115 C49.4446602,103.169282 48.3961165,101.582615 47.3009709,99.966782 C46.8911771,99.4021952 46.5416899,98.7960973 46.2582524,98.1584487 C46.0244391,97.5243503 45.8679661,96.8642923 45.792233,96.1926153 C45.5759756,94.6644328 45.4785953,93.1217364 45.5009709,91.5784487 C44.761165,91.409282 43.7533981,91.5784487 43.4271845,92.2376153 C43.1883495,92.6984487 43.1126214,93.3051153 42.6582524,93.5384487 C42.360762,93.6403332 42.0451265,93.6781031 41.7320388,93.649282 C40.2815534,93.7484487 39.2737864,95.399282 37.8174757,95.451782 C36.9786408,95.4926153 36.2038835,94.996782 35.3708738,94.909282 C34.0485437,94.769282 32.8660194,95.644282 31.6543689,96.1809487 C29.645437,97.06165 27.3603882,97.06165 25.3514563,96.1809487 C25.0543689,96.0526153 24.7223301,95.679282 24.9669903,95.4576153 C25.2116505,95.2359487 25.4038835,95.4226153 25.6019417,95.329282 C25.9747573,95.1426153 25.7009709,94.5884487 25.4970874,94.226782 C24.9145631,93.1826153 25.3223301,91.8934487 25.8873786,90.8084487 C26.4524272,89.7234487 27.192233,88.7026153 27.2097087,87.5009487 C27.1736395,87.1128985 27.1736395,86.7223322 27.2097087,86.334282 C27.3933771,85.7862922 27.6845102,85.2805639 28.0660194,84.846782 C29.0560686,83.244254 29.3267144,81.2984027 28.8116505,79.4859487 C28.2846107,77.6989836 27.4204835,76.0297136 26.2660194,74.5684487 C23.2019417,70.3684487 18.8912621,66.821782 17.184466,61.8809487 Z" id="Path" fill="#454B69"></path>
                    <path d="M44.7902913,58.4101153 L47.1669903,59.7634487 C46.4383548,60.1020039 45.6915841,60.3999587 44.9300971,60.6559487 C39.5708738,62.4584487 41.4815534,64.9609487 35.831068,64.8909487 C31.9805825,64.8501153 27.5883495,64.5526153 24.8912621,67.3059487 C23.6213592,68.6009487 22.9805825,70.374282 22.3747573,72.089282 C22.0951456,72.8709487 21.8213592,73.6526153 21.5475728,74.4226153 C20.3475728,72.7484487 19.1184466,71.0801153 17.8776699,69.4351153 C16.8699029,68.1051153 15.8330097,66.7576153 15.3262136,65.1651153 C14.7742083,63.3948951 14.9222674,61.4799828 15.7398058,59.8159487 C16.4186999,58.6584963 17.1984332,57.5634015 18.0699029,56.5434487 C18.894653,55.2922464 19.7892801,54.088665 20.7495146,52.9384487 C21.7286896,51.7812111 23.135155,51.0717386 24.6466019,50.9726153 C25.5145631,50.9726153 26.5281553,51.2176153 27.1281553,50.5934487 C27.3495146,50.371782 27.4660194,50.074282 27.7106796,49.8584487 C28.3456311,49.2751153 29.3883495,49.6659487 30.1514563,50.0976153 L44.7902913,58.4101153 Z" id="Path" fill="#000000" opacity="0.1"></path>
                    <path d="M58.968932,13.8259487 C58.8906123,13.1272768 58.7181717,12.4424432 58.4563107,11.7901153 C58.2052159,11.2875033 57.8856613,10.8222295 57.5067961,10.4076153 C55.0095488,7.58936812 51.4362121,5.96344643 47.6737864,5.93344867 C47.3499425,5.91236248 47.0254945,5.96418679 46.7242718,6.08511534 C46.6491729,6.11873059 46.578694,6.16186086 46.5145631,6.21344867 C43.8291262,4.399282 40.6893204,2.62011534 37.776699,1.914282 C35.7560722,1.4393584 33.6500222,1.46739795 31.6427184,1.99594867 C29.2019417,2.73094867 28.3514563,4.679282 27.3145631,6.80844867 C25.6465707,10.2323339 23.1094303,13.1572157 19.9572816,15.2901153 C17.9300971,16.6609487 15.5242718,17.839282 14.5514563,20.0851153 C13.6427184,22.179282 14.2601942,24.5826153 14.4757282,26.8576153 C14.9882663,33.1005744 12.3495136,39.186673 7.44466019,43.074282 C4.67184466,45.226782 0.972815534,47.0234487 0.384466019,50.4826153 C-0.0349514563,52.944282 1.34563107,55.306782 2.38834951,57.5759487 C4.5961165,62.3709487 5.35339806,68.2276153 2.76116505,72.824282 C2.02135922,74.1309487 1.01359223,75.326782 0.634951456,76.7734487 C-0.0582524272,79.3459487 1.41553398,82.1401153 3.61165049,83.6334487 C5.80776699,85.126782 8.57475728,85.5351153 11.231068,85.52369 C13.1650485,85.52369 15.2563107,85.231782 16.6252427,83.8726153 C17.4759145,82.8914437 18.0951042,81.7310935 18.4368932,80.4776153 C19.5553398,77.3081709 20.6757282,74.1406709 21.7980583,70.9751153 C22.3805825,69.2601153 23.0446602,67.4751153 24.3145631,66.191782 C27.0058252,63.4384487 31.4038835,63.7301153 35.2485437,63.776782 C40.9048544,63.846782 38.9941748,61.3501153 44.3475728,59.541782 C47.4932039,58.4801153 50.9126214,56.671782 51.6466019,53.4284487 C52.3805825,50.1851153 50.2019417,47.2451153 48.2970874,44.6201153 C46.8679612,42.6756709 45.5203883,40.6631709 44.2543689,38.5826153 C43.0135922,36.5759487 41.831068,34.4584487 41.4873786,32.1251153 C40.9048544,28.2459487 50.3126214,26.081782 51.7223301,22.424282 C52.1246459,21.3922138 52.4631499,20.336329 52.7359223,19.2626153 C53.4116505,19.2101153 54.0349515,19.1459487 54.4834951,19.1284487 C56.2834951,19.046782 58.3048544,18.3409487 58.9223301,16.649282 C59.173874,15.7269499 59.1898989,14.7561017 58.968932,13.8259487 L58.968932,13.8259487 Z" id="Path" fill="#3F3D56"></path>
                    <g id="Group" opacity="0.1" transform="translate(4.182524, 1.540949)" fill="#000000">
                        <path d="M38.9708738,3.255 C39.2735176,3.13969137 39.597146,3.08998617 39.9203883,3.10916667 L40.0543689,3.10916667 C38.0672821,1.85473133 35.9088467,0.895840961 33.6466019,0.2625 L33.1048544,0.151666667 C35.088059,1.06554381 36.9900581,2.14666165 38.7902913,3.38333333 C38.8466022,3.33532433 38.9070303,3.2923803 38.9708738,3.255 Z" id="Path"></path>
                        <path d="M54.7864078,12.1741667 C54.708088,11.4754948 54.5356474,10.7906612 54.2737864,10.1383333 C54.0241519,9.63485976 53.7044628,9.16939015 53.3242718,8.75583333 C51.3325256,6.50951587 48.641435,5.00279651 45.6873786,4.48 C47.2377359,5.23493659 48.6235786,6.28963992 49.7650485,7.58333333 C50.1475941,7.99283989 50.4675602,8.45674711 50.7145631,8.96 C50.9811672,9.61279855 51.1537669,10.300228 51.2271845,11.0016667 C51.4519588,11.9308438 51.4399403,12.9016883 51.192233,13.825 C50.5805825,15.5166667 48.5533981,16.2225 46.7592233,16.2983333 C46.3223301,16.2983333 45.6932039,16.3858333 45.0116505,16.4325 C44.7397386,17.508369 44.40122,18.5662474 43.9980583,19.6 C42.5883495,23.2516667 33.1980583,25.4333333 33.768932,29.3008333 C34.1067961,31.6341667 35.2951456,33.7516667 36.5300971,35.7583333 C37.7650485,37.765 39.1514563,39.8416667 40.5728155,41.7958333 C42.4776699,44.4208333 44.6504854,47.4366667 43.9223301,50.6041667 C43.1941748,53.7716667 39.7747573,55.6558333 36.6291262,56.7175 C31.2699029,58.5258333 33.1805825,61.0225 27.5300971,60.9525 C23.6796117,60.9058333 19.2815534,60.6141667 16.5902913,63.3675 C15.3203883,64.6625 14.6796117,66.4358333 14.0737864,68.1508333 L10.7126214,77.6533333 C10.3696061,78.9051238 9.75276105,80.0648091 8.90679612,81.0483333 C7.53203883,82.4075 5.4407767,82.6875 3.51262136,82.6933333 C2.41444655,82.7052889 1.31725757,82.6233245 0.233009709,82.4483333 C2.28349515,83.5625 4.72427184,83.8833333 7.0776699,83.8719712 C9.01165049,83.8719712 11.1029126,83.58 12.4718447,82.2208333 C13.3225165,81.2396617 13.9417062,80.0793115 14.2834951,78.8258333 C15.4019417,75.6602778 16.5223301,72.4927778 17.6446602,69.3233333 C18.2271845,67.6083333 18.8912621,65.8233333 20.161165,64.54 C22.8524272,61.7866667 27.2504854,62.0783333 31.0951456,62.125 C36.7514563,62.195 34.8407767,59.6983333 40.1941748,57.89 C43.3398058,56.8283333 46.7592233,55.02 47.4932039,51.7766667 C48.2271845,48.5333333 46.0485437,45.5933333 44.1436893,42.9683333 C42.7145631,41.0238889 41.3669903,39.0113889 40.1009709,36.9308333 C38.8601942,34.9241667 37.6776699,32.8066667 37.3339806,30.4733333 C36.7514563,26.5941667 46.1592233,24.43 47.568932,20.7725 C47.9712479,19.7404318 48.3097518,18.684547 48.5825243,17.6108333 C49.2582524,17.5583333 49.8815534,17.4941667 50.3300971,17.4766667 C52.1300971,17.395 54.1514563,16.6891667 54.768932,14.9975 C55.010892,14.0727201 55.0169013,13.1018791 54.7864078,12.1741667 L54.7864078,12.1741667 Z" id="Path"></path>
                    </g>
                </g>
                <path d="M103,35 C95.8202983,35 90,40.8202983 90,48 C90,55.1797017 95.8202983,61 103,61 C110.179702,61 116,55.1797017 116,48 C115.979006,40.8290124 110.170988,35.0209943 103,35 Z M103,39 C105.209139,39 107,40.790861 107,43 C107,45.209139 105.209139,47 103,47 C100.790861,47 99,45.209139 99,43 C99.0073638,40.7939184 100.793918,39.0073638 103,39 Z M103,58 C99.7919422,57.9860715 96.7980175,56.4651319 95,53.9359286 C95.0641035,51.3974061 100.333335,50 103,50 C105.666674,50 110.935901,51.3974061 111,53.9359286 C109.200044,56.4630792 106.20735,57.9833943 103,58 L103,58 Z" id="Shape" fill="#4586FF"></path>
            </g>
        </g>
    </g>
</svg>